<?xml version="1.0" encoding="UTF-8" standalone="no"?>
<svg
   version="1.1"
   style="display:block"
   viewBox="0 0 264 264"
   width="132"
   height="132"
   id="svg44"
   xml:space="preserve"
   xmlns="http://www.w3.org/2000/svg"
   xmlns:svg="http://www.w3.org/2000/svg"><defs
     id="defs44" /><path
     fill="#010101"
     d="m 100.55174,7.7207521 c 32.822,-3.19 31.346,15.9979999 50.416,31.7989999 8.053,6.673 18.542,10.518 27.07,16.746 -14.655,8.732 -28.16,9.36 -44.34,5.473 -4.202,9.148 -8.596,20.349 -16.587,26.798 -8.372,6.757 -17.442002,5.805 -27.382002,4.659 0.669,5.251 1.633,10.464998 2.52,15.682998 4.171,4.475 6.725,10.377 8.754002,16.085 7.995,22.498 2.413,48.583 -7.410002,69.643 6.271,18.136 14.211002,35.615 21.332002,53.426 11.342,2.25 29.0218,-7.86807 37.5748,0.19193 6.22,22.08996 -43.1808,-3.90001 -39.2218,18.70999 -31.518202,-3.33035 -14.432302,11.55954 -0.8236,47.14811 9.297,22.86 33.7736,72.07993 42.0466,95.40993 14.254,40.19 24.425,80.89 36.179,121.75 15.122,5.51 27.672,-1 42.603,0.12 3.911,0.29 6.317,0.99 8.929,3.96 0.445,3.3 0.239,5.33 -1.927,8.01 -10.391,12.85 -62.561,24.23 -79.491,26.17 -2.324,-7.73 -3.063,-15.77 -4.775,-23.66 -1.221,-0.68 -4.126,-1.96 -4.911,-3 -3.085,-4.08 -13.172,-28.91 -16.118,-35.09 -10.175,-21.34 -21.149,-42.38 -31.861,-63.46 -8.716002,-17.15 -17.124002,-35.45 -27.934002,-51.38 -8.199,-12.09 -22.243,-22.02 -32.887,-32.19 -1.689,11.86 -4.339,23.87 -7.576,35.39 -15.407,53.31 -50.444,74.22 -93.22,104.28 -11.772,8.28 -23.642,16.38 -33.159,27.29 9.685,8.39 20.9,15.84 30.005,24.72 3.118,3.04 5.141,5.72 5.138,10.27 -0.944,1.84 -1.269,2.63 -3.146,3.69 -6.491,3.66 -19.037,1.91 -26.196,0.12 -7.01,-1.76 -14.932998,-4.93 -20.485998,-9.57 -7.023,-5.86 -24.495,-32.35 -30.008,-41.22 9.465,-7.92 19.008,-15.92 27.77,-24.61 21.821998,-21.67 67.214998,-71.33 79.527998,-98.28 -1.213,-14.07 -2.334,-28.4 -2.223,-42.53 0.111,-14.13 6.674,-69.78 2.768,-77.54 -7.391,-14.66996 5.035,-55.99196 10.212,-72.17096 12.8340003,-40.111 44.92,-103.057998 82.823,-122.505998 3.54,1.474 7.094,2.951 10.702,4.252 9.973,3.597 23.229,7.619 33.272002,2.55 10.105,-5.1 14.139,-16.726 17.446,-26.774 -6.86,-3.819 -15.713,-10.022 -23.41,-11.534 -0.717,1.358 -1.258,2.156 -2.289,3.35 -5.418002,-1.419 -6.123002,-8.187 -11.095002,-9.487 -9.584,5.994 -2.667,19.648 -6.095,26.036 -5.966,1.865 -8.049,4.648 -12.786,8.152 -1.682,-1.25 -1.472,-1.15 -2.098,-3.018 -4.461,-13.315 -3.754,-31.05 2.905,-43.48 6.347,-11.845 17.149,-16.897 29.462002,-20.3819999 z"
     id="path16" /><path
     fill="#3323bf"
     d="m 91.293738,34.469752 c -1.416,0.243 -2.833,0.487 -4.229,0.832 -11.829,2.92 -6.803,20.057 -11.381,27.419 l -1.95,0.024 c -0.329,-0.579 -0.759,-1.112 -0.988,-1.738 -2.279,-6.228 2.326,-22.759 4.93,-28.793 4.959,2.266 8.41,1.857 13.618,2.256 z"
     id="path17"
     style="fill:#ff7f2a" /><path
     fill="#5649e8"
     d="m 77.675738,32.213752 c 5.27,-8.707 11.28,-14.731 21.469,-17.311 8.399002,-2.126 17.115002,-0.791 24.398002,3.946 8.484,5.518 8.888,12.479 14.864,19.317 6.712,7.679 18.268,12.564 26.792,17.831 -28.278,4.322 -49.028,-10.738 -73.905002,-21.527 -5.208,-0.399 -8.659,0.01 -13.618,-2.256 z"
     id="path21"
     style="fill:#ff9955" /><path
     fill="#fefefd"
     d="m 81.852738,184.85775 c 0.258,0.269 23.950002,59.555 25.734002,64.905 -5.785,1.31 -10.365002,4.2 -15.898002,5.99 l -2.213,-1.92 c -27.436,-24.08 -25.778,-30.12 -32.182,-64.97 8.162,-1.473 16.392,-2.453 24.559,-4.005 z"
     id="path22" /><path
     fill="#726ad8"
     d="m 63.820738,86.739752 c 5.665,2.186 15.403,4.473 17.729,10.759 2.09,5.651998 -2.05,11.553998 -4.647,16.317998 3.927,1.201 8.066,1.915 12.081,2.785 0.9952,2.57691 1.9735,5.1603 2.935,7.75 7.02,18.973 7.047,38.655 -1.523,57.371 l -1.037,-0.18 c -0.825,-1.716 -1.538,-3.629 -3.04,-4.865 -1.047,-0.861 -0.948,-0.409 -2.595,-0.031 -10.585,2.434 -20.265,4.088 -31.084,4.914 -0.822,-4.88 -1.138,-11.175 -4.367,-15.085 l -1.263,0.8 c -1.402,4.965 -0.982,9.726 -0.784,14.818 -4.648,-1.304 -9.671,-2.853 -14.495,-1.891 l 0.279,1.467 c 5.202,4.379 12.076,6.352 18.316,8.928 2.766,13.713 3.39,29.168 9.501,41.909 6.864,14.306 30.556,25.996 31.242,42.17596 0.151,3.55 -0.622,4.28 -3,6.83 -11.145,6.71 -24.004,10.96 -36.848,12.86 -28.963,4.29 -52.19299972,-8.45 -74.831,-25.25996 0.093,-6.65 0.837,-13.41 1.8,-19.98 8.303,-56.625 39.232,-127.966 85.631,-162.392998 z"
     id="path24"
     style="fill:#ffb380" /><path
     style="fill:#000000;stroke-width:2"
     d="m 90.501438,270.95308 61.706002,-10.88289 38.0616,-28.90492 -26.3853,-10.86002 -29.4166,15.99302 -31.3316,1.83374 z"
     id="path47" /><path
     style="fill:#ffffff;stroke-width:2"
     d="m 103.13554,238.13201 4.4512,5.00908 23.1478,-1.22828 7.7839,-0.1858 11.5241,-6.4299 13.5112,-7.81666 9.8263,4.29902 1.8425,0.92122 -28.7714,19.6562 -18.9257,3.39592 -26.6003,3.89562 -9.236402,-3.89562 z"
     id="path48" /><g
     style="fill:#000000"
     id="g48"
     transform="matrix(-5.3003383,0,0,5.3003383,263.69634,89.340022)"><path
       d="M 8,21 H 4 A 1,1 0 0 1 3,20 v -4 a 1,1 0 0 0 -2,0 v 4 a 3,3 0 0 0 3,3 h 4 a 1,1 0 0 0 0,-2 z m 14,-6 a 1,1 0 0 0 -1,1 v 4 a 1,1 0 0 1 -1,1 h -4 a 1,1 0 0 0 0,2 h 4 a 3,3 0 0 0 3,-3 V 16 A 1,1 0 0 0 22,15 Z M 20,1 h -4 a 1,1 0 0 0 0,2 h 4 a 1,1 0 0 1 1,1 v 4 a 1,1 0 0 0 2,0 V 4 A 3,3 0 0 0 20,1 Z M 2,9 A 1,1 0 0 0 3,8 V 4 A 1,1 0 0 1 4,3 H 8 A 1,1 0 0 0 8,1 H 4 A 3,3 0 0 0 1,4 V 8 A 1,1 0 0 0 2,9 Z M 10,5 H 6 A 1,1 0 0 0 5,6 v 4 a 1,1 0 0 0 1,1 h 4 a 1,1 0 0 0 1,-1 V 6 A 1,1 0 0 0 10,5 Z M 9,9 H 7 V 7 h 2 z m 5,2 h 4 a 1,1 0 0 0 1,-1 V 6 A 1,1 0 0 0 18,5 h -4 a 1,1 0 0 0 -1,1 v 4 a 1,1 0 0 0 1,1 z m 1,-4 h 2 v 2 h -2 z m -5,6 H 6 a 1,1 0 0 0 -1,1 v 4 a 1,1 0 0 0 1,1 h 4 a 1,1 0 0 0 1,-1 V 14 A 1,1 0 0 0 10,13 Z M 9,17 H 7 v -2 h 2 z m 5,-1 a 1,1 0 0 0 1,-1 1,1 0 0 0 0,-2 h -1 a 1,1 0 0 0 -1,1 v 1 a 1,1 0 0 0 1,1 z m 4,-3 a 1,1 0 0 0 -1,1 v 3 a 1,1 0 0 0 0,2 h 1 a 1,1 0 0 0 1,-1 v -4 a 1,1 0 0 0 -1,-1 z m -4,4 a 1,1 0 1 0 1,1 1,1 0 0 0 -1,-1 z"
       id="path1" /></g><path
     style="fill:#ffffff;stroke-width:0.217134"
     d="m 91.924938,86.723022 c -4.17184,-0.609054 -9.38594,-1.99277 -15.28984,-4.057602 -2.52358,-0.882604 -2.74098,-1.00332 -3.09604,-1.7192 -0.54112,-1.09101 -0.86746,-4.078784 -0.69662,-6.377896 l 0.1456,-1.958332 2.24344,-1.729514 c 2.59576,-2.001112 3.8776,-2.762112 6.2892,-3.733752 1.7211,-0.693434 1.741,-0.71043 2.16438,-1.848264 0.39606,-1.064442 0.42782,-1.735726 0.43426,-9.182322 l 0.006,-8.033928 0.6069,-1.716502 c 0.3338,-0.944074 1.00434,-2.283084 1.49008,-2.975578 0.8512,-1.21345 2.60842,-2.801186 3.09556,-2.796976 0.1296,0.0011 0.74262,0.292718 1.36208,0.647994 1.16932,0.67063 1.61204,1.147136 4.18822,4.507822 0.84718,1.105182 2.02408,2.391802 2.61532,2.859152 1.11684,0.8828 2.4108,1.439216 2.905502,1.24938 0.27184,-0.10432 1.9526,-2.46651 2.12678,-2.989026 0.196,-0.587818 6.0299,1.570972 10.27114,3.800712 2.12972,1.11966 12.53402,7.120932 12.91844,7.451454 0.1404,0.12064 -1.4948,4.877216 -2.82812,8.227008 -4.90756,12.329598 -11.4452,18.789164 -20.60526,20.35916 -2.472662,0.423804 -7.502042,0.43168 -10.347902,0.0162 z"
     id="path50" /></svg>
