<?xml version="1.0" encoding="UTF-8" standalone="no"?>
<svg
   version="1.1"
   style="display:block"
   viewBox="0 0 1770.1985 562.133"
   width="885.09924"
   height="281.0665"
   id="svg44"
   sodipodi:docname="openpleb.svg"
   xml:space="preserve"
   inkscape:version="1.4 (e7c3feb100, 2024-10-09)"
   inkscape:export-filename="openpleb.png"
   inkscape:export-xdpi="96"
   inkscape:export-ydpi="96"
   xmlns:inkscape="http://www.inkscape.org/namespaces/inkscape"
   xmlns:sodipodi="http://sodipodi.sourceforge.net/DTD/sodipodi-0.dtd"
   xmlns="http://www.w3.org/2000/svg"
   xmlns:svg="http://www.w3.org/2000/svg"><defs
     id="defs44" /><sodipodi:namedview
     id="namedview44"
     pagecolor="#ffffff"
     bordercolor="#000000"
     borderopacity="0.25"
     inkscape:showpageshadow="2"
     inkscape:pageopacity="0.0"
     inkscape:pagecheckerboard="0"
     inkscape:deskcolor="#d1d1d1"
     inkscape:zoom="2.3027344"
     inkscape:cx="777.77099"
     inkscape:cy="269.46226"
     inkscape:window-width="2560"
     inkscape:window-height="1381"
     inkscape:window-x="0"
     inkscape:window-y="27"
     inkscape:window-maximized="1"
     inkscape:current-layer="svg44" /><path
     fill="#349e4f"
     d="m 999.46386,146.85067 c 16.07134,0.50064 32.29474,0.001 48.37874,-0.0938 -2.8391,27.96762 -10.7987,56.97583 -16.3882,84.57463 -9.2017,45.37987 -17.6049,91.10957 -28.0361,136.21827 l -48.46744,-0.051 c 5.2093,-28.8093 12.0028,-57.4664 17.9852,-86.1362 a 7351.3946,7351.3946 0 0 0 26.5278,-134.51221 z"
     id="path2"
     style="fill:#ff7f2a;stroke-width:1.26745" /><path
     fill="#349e4f"
     d="m 689.74893,206.52618 c 9.77206,-0.85046 19.6582,-1.35238 29.34154,0.65907 12.30697,2.55772 22.68742,8.94696 29.37957,19.72538 5.46273,8.77331 7.88356,19.14362 8.2638,29.38084 0.84919,22.6253 -14.94328,86.15 -20.62147,111.3343 -16.56561,0.2281 -33.2453,-0.3169 -49.82359,-0.3802 3.13061,-25.1463 26.00814,-92.2072 13.72652,-111.40658 -2.38281,-3.73139 -6.05843,-6.55527 -10.43114,-7.43615 -11.8621,-2.38535 -21.66205,0.42333 -31.63944,6.74032 -4.34357,3.99496 -7.32081,8.36133 -9.51097,13.84941 -5.13319,12.852 -6.93297,27.3009 -9.56421,40.8373 -3.73011,19.1893 -7.61613,38.3405 -12.85071,57.1875 -16.24115,-0.1774 -32.50764,0.076 -48.75133,0.1394 12.9407,-52.0923 22.14495,-105.41657 33.06279,-157.98415 11.71254,0.73005 34.41263,-1.78711 44.34186,1.97089 l 0.13435,12.41217 c 11.10416,-9.33733 20.84708,-13.89763 34.94243,-17.0295 z"
     id="path3"
     style="fill:#ff7f2a;stroke-width:1.26745" /><path
     id="path4"
     style="fill:#ff7f2a;stroke-width:1.26745"
     d="M 509.82422 206.16016 C 504.95071 206.12625 500.06425 206.40211 495.17188 206.67969 C 468.71252 210.20067 445.72763 221.9092 429.27735 243.36719 A 94.481682 94.481682 0 0 0 410.88282 312.82031 A 64.802485 64.802485 0 0 0 436.23047 356.07813 C 456.63521 371.31293 486.13847 373.63377 510.55469 369.47657 A 95.381827 95.381827 0 0 0 556.21875 348.10547 C 553.08687 343.59337 550.0431 338.99486 546.66407 334.66016 L 532.76954 317.06641 C 518.11778 327.09191 502.19185 332.07445 484.28907 328.65235 C 475.96443 327.05535 467.96431 323.40403 463.22657 316.07813 C 460.61054 312.03493 459.43487 307.23061 458.48047 302.56641 C 460.39433 300.52581 462.7926 300.83119 465.54297 300.74219 C 474.06913 300.46329 482.81484 301.3865 491.38282 301.4375 A 3974.0115 3974.0115 0 0 0 572.73829 301.25 C 578.02484 279.2724 578.59478 254.31915 566.05079 234.54688 C 556.6222 219.68345 541.41918 210.8765 524.40235 207.5 C 519.56004 206.53927 514.69774 206.19406 509.82422 206.16016 z M 497.54688 245.99219 C 503.4342 246.31286 509.48641 246.7249 514.89844 249.28516 C 524.08241 253.62872 527.66891 261.52738 531.03907 270.48828 L 500.89063 270.78125 L 464.8086 271.0586 A 52.622258 52.622258 0 0 1 470.65235 260.25 C 477.40788 250.81766 486.55045 247.74001 497.54688 245.99219 z " /><path
     id="path6"
     style="fill:#ff7f2a;stroke-width:1.26745"
     d="M 1142.5508 206.41406 C 1138.0196 206.29746 1133.471 206.47308 1128.8828 206.70313 C 1101.9367 209.80585 1078.9466 220.67055 1061.8867 242.25781 C 1046.918 261.18591 1038.9579 286.78851 1041.8984 310.88281 C 1043.9517 327.72731 1051.9098 343.5172 1065.3828 354.0625 C 1085.6494 369.9183 1115.3968 371.80882 1139.9727 368.38672 C 1158.693 365.77572 1175.4993 358.58743 1190.0117 346.39453 C 1186.184 342.07243 1182.2188 337.81591 1178.5938 333.31641 L 1166.5274 318.2461 C 1149.2266 326.041 1128.2999 334.42965 1109.3008 327.28125 C 1099.8329 323.70695 1093.9127 316.69982 1090.0977 307.57422 C 1089.578 306.34472 1089.1252 305.09074 1088.6563 303.83594 L 1204.6524 303.75781 C 1210.2672 280.29731 1211.5201 258.45729 1198.0977 237.02344 A 64.242398 64.242398 0 0 0 1156.1211 207.89063 C 1151.5963 206.94067 1147.0819 206.53067 1142.5508 206.41406 z M 1135.1289 246.77735 C 1139.8013 246.85786 1144.4097 247.54471 1148.6953 249.6875 C 1158.366 254.51903 1161.975 263.72082 1165.207 273.32813 L 1133.6992 273.36719 L 1092.7227 273.45313 C 1101.5949 258.48703 1109.9601 251.50469 1126.7031 247.10156 C 1129.4979 246.89814 1132.3255 246.72904 1135.1289 246.77735 z " /><path
     id="path8"
     style="fill:#ff7f2a;stroke-width:1.26745"
     d="M 339.72266 207.35938 C 335.74927 207.23164 331.73309 207.39351 327.71875 207.79688 L 325.92578 208.1211 C 313.5567 210.44941 304.87536 217.90552 295.02344 220.02344 L 293.66406 212.41016 C 280.97939 208.21995 261.59482 210.58203 248.00391 210.82031 C 240.31934 245.14549 234.19531 279.86711 227.04688 314.31641 C 219.36357 351.35141 210.67495 388.15665 203.73438 425.34375 L 254.1836 425.39453 L 258.75781 400.47657 A 2466.401 2466.401 0 0 1 267.4336 354.48047 C 285.3668 367.92817 301.8189 371.78393 323.83203 368.64063 C 347.73874 365.23113 368.74287 351.41358 382.92188 332.04688 A 93.305358 93.305358 0 0 0 399.69922 262.59766 C 396.78662 244.96616 388.26781 228.23624 373.33594 217.82031 C 363.2017 210.75078 351.64282 207.74258 339.72266 207.35938 z M 318.27735 249.73047 C 324.76291 250.18675 330.79312 251.45439 336.42188 254.78906 C 343.6527 259.07173 348.50564 265.5963 350.57032 273.7461 C 353.29407 284.4941 351.09272 296.17851 345.33594 305.57031 C 337.65391 318.10541 326.93118 323.78615 313.07031 326.77735 C 305.2121 326.85335 297.54885 325.59698 290.94922 321.04688 C 284.39902 316.53478 280.49414 309.89246 279.1836 302.09766 C 277.15821 290.05686 281.26839 277.10421 288.375 267.38281 C 296.12421 256.79459 305.58254 251.93077 318.27735 249.73047 z " /><path
     id="path10"
     style="fill:#ff7f2a;stroke-width:1.26745"
     d="M 889.83204 207.30469 C 885.43061 207.20983 880.9523 207.40176 876.41798 207.76172 C 862.78018 210.55519 852.31413 216.08734 840.79298 223.66797 L 841.52735 209.17969 L 795.79688 209.75 C 783.66735 282.61709 763.99573 354.04988 751.25782 426.73828 L 800.75391 426.90625 L 805.35157 402.41797 C 808.78637 384.74967 812.51464 367.08122 815.48048 349.32422 C 832.65448 363.34222 849.1071 371.9335 872.13673 369.5 C 894.73542 367.1045 916.04036 353.79909 929.90626 336.05469 C 945.62276 315.91489 953.11368 288.11692 949.79298 262.80078 C 947.61298 246.1072 940.39873 229.71528 926.82423 219.19922 C 915.55023 210.4652 903.03632 207.58927 889.83204 207.30469 z M 868.44532 249.0586 C 873.25904 249.014 878.03114 249.55353 882.57813 251.45313 C 890.1195 254.60655 895.63364 260.27684 898.52344 267.92969 C 902.65534 278.91859 900.84494 292.34999 895.64844 302.67969 C 889.36184 315.18949 879.52362 322.09802 866.51954 326.44532 C 859.99216 327.82692 854.05004 327.55036 847.63673 325.53516 C 840.15875 323.17766 834.40173 318.09281 831.04298 311.00781 C 826.31538 301.04561 826.5209 289.3367 830.33594 279.1211 C 835.79866 264.4693 845.87339 255.72854 859.77735 249.60547 C 862.65288 249.32457 865.55708 249.08535 868.44532 249.0586 z " /><path
     id="path12"
     style="fill:#ff7f2a;stroke-width:1.26745"
     d="M 1301.3477 145.57422 L 1253.7031 145.61719 C 1244.8436 187.07432 1237.834 228.97043 1229.4688 270.53906 C 1223.1062 302.16196 1214.4881 334.95181 1210.8125 366.87891 L 1259.8477 367.1836 C 1260.38 361.4167 1260.8136 355.61065 1261.4727 349.84375 C 1278.1778 364.67295 1294.2212 371.03427 1316.5664 369.85547 C 1330.9267 369.08237 1343.8291 364.98947 1355.7305 356.78907 C 1377.7335 339.74177 1392.4017 317.9815 1396.1406 289.9961 C 1398.9164 269.2479 1395.1643 246.5231 1382.1602 229.64063 A 57.67813 57.67813 0 0 0 1341.8281 207.03906 C 1320.7376 204.83242 1303.5912 212.36636 1286.582 223.77344 C 1291.6138 198.17469 1298.3565 171.46956 1301.3477 145.57422 z M 1315.293 250.62891 C 1320.182 250.66134 1324.966 251.43112 1329.5859 253.37891 C 1337.8116 256.84667 1343.4999 263.18185 1346.4531 271.55469 A 41.96589 41.96589 0 0 1 1344.4024 303.8086 C 1338.0525 316.686 1327.5957 323.68508 1314.4141 328.17188 C 1307.5065 328.76758 1300.5587 328.68878 1294.082 325.92578 C 1285.7548 322.36418 1279.7373 316.10404 1276.7461 307.52344 C 1273.0452 296.88944 1274.8815 285.57076 1279.9766 275.72266 C 1286.8336 262.43846 1296.5938 255.4555 1310.3711 250.82422 C 1312.022 250.68765 1313.6633 250.6181 1315.293 250.62891 z " /><path
     id="path14"
     style="fill:#ff7f2a;stroke-width:1.26745"
     d="M 121.79297 161.5625 C 116.96819 161.5424 112.19384 161.82615 107.54688 162.40625 C 75.045573 165.75486 47.443695 179.90322 26.796875 205.57422 C 7.823095 229.16533 -2.8944263 262.65356 0.68359376 292.91016 C 3.3820037 315.74966 15.8835 336.48403 33.875 350.57813 C 58.26968 369.70393 84.625354 372.34146 114.56641 370.97266 C 146.44033 366.25776 173.32155 352.60658 192.95313 326.48438 A 116.67492 116.67492 0 0 0 215.42578 237.95313 C 211.94915 214.79802 200.03248 193.5368 181.0625 179.58594 C 164.55162 167.44453 142.70033 161.64959 121.79297 161.5625 z M 113.75 206.53516 C 123.49498 206.5119 133.34889 208.44259 141.88281 213.28125 C 152.74742 219.44107 160.07031 229.99483 163.40625 241.91016 C 168.51915 260.17285 164.67356 280.78051 155.15625 297.00391 C 144.73525 314.74821 130.44694 323.08905 111.0625 327.96875 C 97.405688 329.12215 84.349568 328.13262 72.648438 320.26172 C 61.444148 312.73302 54.590884 300.577 52.246094 287.4336 C 48.924094 268.8147 53.220474 247.70614 64.339844 232.32813 C 75.585964 216.77521 91.034225 209.30163 109.58594 206.66406 C 110.96952 206.58374 112.35786 206.53848 113.75 206.53516 z " /><path
     fill="#010101"
     d="m 1612.3543,0.35100824 c 32.822,-3.19000004 31.346,15.99799976 50.416,31.79899976 8.053,6.673 18.542,10.518 27.07,16.746 -14.655,8.732 -28.16,9.36 -44.34,5.473 -4.202,9.148 -8.596,20.349 -16.587,26.798 -8.372,6.757 -17.442,5.805 -27.382,4.659 0.669,5.251 1.633,10.465 2.52,15.683002 4.171,4.475 6.725,10.377 8.754,16.085 7.995,22.498 2.413,48.583 -7.41,69.643 6.271,18.136 14.211,35.615 21.332,53.426 11.342,2.25 29.0218,-7.86807 37.5748,0.19193 6.22,22.08996 -43.1808,-3.90001 -39.2218,18.70999 -31.5182,-3.33035 -14.4323,11.55954 -0.8236,47.14811 9.297,22.86 33.7736,72.07993 42.0466,95.40993 14.254,40.19 24.425,80.89 36.179,121.75 15.122,5.51 27.672,-1 42.603,0.12 3.911,0.29 6.317,0.99 8.929,3.96 0.445,3.3 0.239,5.33 -1.927,8.01 -10.391,12.85 -62.561,24.23 -79.491,26.17 -2.324,-7.73 -3.063,-15.77 -4.775,-23.66 -1.221,-0.68 -4.126,-1.96 -4.911,-3 -3.085,-4.08 -13.172,-28.91 -16.118,-35.09 -10.175,-21.34 -21.149,-42.38 -31.861,-63.46 -8.716,-17.15 -17.124,-35.45 -27.934,-51.38 -8.199,-12.09 -22.243,-22.02 -32.887,-32.19 -1.689,11.86 -4.339,23.87 -7.576,35.39 -15.407,53.31 -50.444,74.22 -93.22,104.28 -11.772,8.28 -23.642,16.38 -33.159,27.29 9.685,8.39 20.9,15.84 30.005,24.72 3.118,3.04 5.141,5.72 5.138,10.27 -0.944,1.84 -1.269,2.63 -3.146,3.69 -6.491,3.66 -19.037,1.91 -26.196,0.12 -7.01,-1.76 -14.933,-4.93 -20.486,-9.57 -7.023,-5.86 -24.495,-32.35 -30.008,-41.22 9.465,-7.92 19.008,-15.92 27.77,-24.61 21.822,-21.67 67.215,-71.33 79.528,-98.28 -1.213,-14.07 -2.334,-28.4 -2.223,-42.53 0.111,-14.13 6.674,-69.78 2.768,-77.54 -7.391,-14.66996 5.035,-55.99196 10.212,-72.17096 12.834,-40.111 44.92,-103.058002 82.823,-122.506002 3.54,1.474 7.094,2.951 10.702,4.252 9.973,3.597 23.229,7.619 33.272,2.55 10.105,-5.1 14.139,-16.726 17.446,-26.774 -6.86,-3.819 -15.713,-10.022 -23.41,-11.534 -0.717,1.358 -1.258,2.156 -2.289,3.35 -5.418,-1.419 -6.123,-8.187 -11.095,-9.487 -9.584,5.994 -2.667,19.648 -6.095,26.036 -5.966,1.865 -8.049,4.648 -12.786,8.152 -1.682,-1.25 -1.472,-1.15 -2.098,-3.018 -4.461,-13.315 -3.754,-31.05 2.905,-43.48 6.347,-11.8449998 17.149,-16.8969998 29.462,-20.38199976 z"
     id="path16"
     sodipodi:nodetypes="csccccccccccccccccccccccccccccccccccsccccsccccccccc" /><path
     fill="#3323bf"
     d="m 1603.0963,27.100008 c -1.416,0.243 -2.833,0.487 -4.229,0.832 -11.829,2.92 -6.803,20.057 -11.381,27.419 l -1.95,0.024 c -0.329,-0.579 -0.759,-1.112 -0.988,-1.738 -2.279,-6.228 2.326,-22.759 4.93,-28.793 4.959,2.266 8.41,1.857 13.618,2.256 z"
     id="path17"
     style="fill:#ff7f2a" /><path
     fill="#726ad8"
     d="m 1741.0253,530.44297 c 2.592,-0.14 4.731,-0.7 7.078,0.5 -0.148,0.22 -0.271,0.46 -0.445,0.66 -7.399,8.46 -55.937,20.13 -67.382,22.1 l -1.841,-0.57 c -2.828,-3.87 -2.442,-12.51 -2.749,-17.34 6.046,-0.69 12.102,-3.61 18.1,-3.72 7.81,-0.13 15.761,1.7 23.617,1.86 7.761,0.16 16.005,-2 23.622,-3.49 z"
     id="path19"
     style="fill:#ffb380" /><path
     fill="#726ad8"
     d="m 1401.3493,496.09297 c 5.73,4.9 11.151,10.15 16.618,15.35 l -6.105,10.74 c 5.983,6.49 12.862,12.46 19.964,17.69 5.01,3.69 11.005,7.17 15.24,11.7 -1.874,1.99 -3.699,1.61 -6.326,1.93 -4.049,-0.14 -8.052,-0.73 -12.024,-1.51 -21.436,-4.2 -31.228,-25.48 -42.286,-42.12 4.657,-5.05 9.633,-9.4 14.919,-13.78 z"
     id="path20"
     style="fill:#ffb380" /><path
     fill="#5649e8"
     d="m 1589.4783,24.844008 c 5.27,-8.707 11.28,-14.731 21.469,-17.3109998 8.399,-2.126 17.115,-0.791 24.398,3.9459998 8.484,5.518 8.888,12.479 14.864,19.317 6.712,7.679 18.268,12.564 26.792,17.831 -28.278,4.322 -49.028,-10.738 -73.905,-21.527 -5.208,-0.399 -8.659,0.01 -13.618,-2.256 z"
     id="path21"
     style="fill:#ff9955" /><path
     fill="#fefefd"
     d="m 1593.6553,177.48801 c 0.258,0.269 23.95,59.555 25.734,64.905 -5.785,1.31 -10.365,4.2 -15.898,5.99 l -2.213,-1.92 c -27.436,-24.08 -25.778,-30.12 -32.182,-64.97 8.162,-1.473 16.392,-2.453 24.559,-4.005 z"
     id="path22" /><path
     fill="#726ad8"
     d="m 1575.6233,79.370008 c 5.665,2.186 15.403,4.473 17.729,10.759 2.09,5.652 -2.05,11.554002 -4.647,16.318002 3.927,1.201 8.066,1.915 12.081,2.785 0.9952,2.57691 1.9735,5.1603 2.935,7.75 7.02,18.973 7.047,38.655 -1.523,57.371 l -1.037,-0.18 c -0.825,-1.716 -1.538,-3.629 -3.04,-4.865 -1.047,-0.861 -0.948,-0.409 -2.595,-0.031 -10.585,2.434 -20.265,4.088 -31.084,4.914 -0.822,-4.88 -1.138,-11.175 -4.367,-15.085 l -1.263,0.8 c -1.402,4.965 -0.982,9.726 -0.784,14.818 -4.648,-1.304 -9.671,-2.853 -14.495,-1.891 l 0.279,1.467 c 5.202,4.379 12.076,6.352 18.316,8.928 2.766,13.713 3.39,29.168 9.501,41.909 6.864,14.306 30.556,25.996 31.242,42.17596 0.151,3.55 -0.622,4.28 -3,6.83 -11.145,6.71 -24.004,10.96 -36.848,12.86 -28.963,4.29 -52.193,-8.45 -74.831,-25.25996 0.093,-6.65 0.837,-13.41 1.8,-19.98 8.303,-56.625 39.232,-127.966 85.631,-162.393002 z"
     id="path24"
     style="fill:#ffb380"
     sodipodi:nodetypes="ccccccccccccccccccccccc" /><path
     fill="#fefefd"
     d="m 1493.9633,274.86297 c 4.928,2.91 9.858,5.88 14.898,8.59 25.845,13.91 53.827,13.91 80.778,2.76 6.301,-2.61 11.997,-7.84 18.337,-9.68 l -0.171,1.22 c -1.985,1.53 -3.926,2.68 -4.751,5.16 4.928,8.75 8.79,18.48 13.371,27.49 8.079,15.88 17.205,31.55 24.413,47.84 21.78,49.22 40.421,111.35 53.749,163.99 -8.071,3.03 -16.174,5.48 -24.477,7.79 -8.67,-15.01 -15.58,-31.13 -23.149,-46.72 a 2847.3,2847.3 0 0 0 -31.499,-62.21 c -7.932,-15.34 -15.872,-32.17 -26.83,-45.59 -6.625,-8.11 -15.687,-15.07 -23.417,-22.2 -18.974,-17.58 -36.067,-38.47 -50.848,-59.64 6.808,20.67 18.6,36.84 33.45,52.57 a 823.838,823.838 0 0 1 -1.587,8.52 c -3.636,18.94 -7.419,38.39 -16.005,55.81 -19.367,39.27 -71.852,69.92 -107.473,94.12 -5.22,-4.5 -10.163,-9.23 -15.103,-14.03 22.029,-24.1 73.474,-76.62 83.923,-105.18 -4.862,-31.07 -3.71,-79.77 2.391,-110.61 z"
     id="path25" /><path
     style="fill:#000000;stroke-width:2"
     d="m 1602.304,263.58334 61.706,-10.88289 38.0616,-28.90492 -26.3853,-10.86002 -29.4166,15.99302 -31.3316,1.83374 z"
     id="path47"
     sodipodi:nodetypes="ccccccc" /><path
     style="fill:#ffffff;stroke-width:2"
     d="m 1614.9381,230.76227 4.4512,5.00908 23.1478,-1.22828 7.7839,-0.1858 11.5241,-6.4299 13.5112,-7.81666 9.8263,4.29902 1.8425,0.92122 -28.7714,19.6562 -18.9257,3.39592 -26.6003,3.89562 -9.2364,-3.89562 z"
     id="path48" /><g
     style="fill:#000000"
     id="g48"
     transform="matrix(-5.3003383,0,0,5.3003383,1775.4989,81.970278)"><path
       d="M 8,21 H 4 A 1,1 0 0 1 3,20 v -4 a 1,1 0 0 0 -2,0 v 4 a 3,3 0 0 0 3,3 h 4 a 1,1 0 0 0 0,-2 z m 14,-6 a 1,1 0 0 0 -1,1 v 4 a 1,1 0 0 1 -1,1 h -4 a 1,1 0 0 0 0,2 h 4 a 3,3 0 0 0 3,-3 V 16 A 1,1 0 0 0 22,15 Z M 20,1 h -4 a 1,1 0 0 0 0,2 h 4 a 1,1 0 0 1 1,1 v 4 a 1,1 0 0 0 2,0 V 4 A 3,3 0 0 0 20,1 Z M 2,9 A 1,1 0 0 0 3,8 V 4 A 1,1 0 0 1 4,3 H 8 A 1,1 0 0 0 8,1 H 4 A 3,3 0 0 0 1,4 V 8 A 1,1 0 0 0 2,9 Z M 10,5 H 6 A 1,1 0 0 0 5,6 v 4 a 1,1 0 0 0 1,1 h 4 a 1,1 0 0 0 1,-1 V 6 A 1,1 0 0 0 10,5 Z M 9,9 H 7 V 7 h 2 z m 5,2 h 4 a 1,1 0 0 0 1,-1 V 6 A 1,1 0 0 0 18,5 h -4 a 1,1 0 0 0 -1,1 v 4 a 1,1 0 0 0 1,1 z m 1,-4 h 2 v 2 h -2 z m -5,6 H 6 a 1,1 0 0 0 -1,1 v 4 a 1,1 0 0 0 1,1 h 4 a 1,1 0 0 0 1,-1 V 14 A 1,1 0 0 0 10,13 Z M 9,17 H 7 v -2 h 2 z m 5,-1 a 1,1 0 0 0 1,-1 1,1 0 0 0 0,-2 h -1 a 1,1 0 0 0 -1,1 v 1 a 1,1 0 0 0 1,1 z m 4,-3 a 1,1 0 0 0 -1,1 v 3 a 1,1 0 0 0 0,2 h 1 a 1,1 0 0 0 1,-1 v -4 a 1,1 0 0 0 -1,-1 z m -4,4 a 1,1 0 1 0 1,1 1,1 0 0 0 -1,-1 z"
       id="path1" /></g><path
     style="fill:#ffffff;stroke-width:0.108567"
     d="m 801.86375,39.676639 c -2.08592,-0.304527 -4.69297,-0.996385 -7.64492,-2.028801 -1.26179,-0.441302 -1.37049,-0.50166 -1.54802,-0.8596 -0.27056,-0.545505 -0.43373,-2.039392 -0.34831,-3.188948 l 0.0728,-0.979166 1.12172,-0.864757 c 1.29788,-1.000556 1.9388,-1.381056 3.1446,-1.866876 0.86055,-0.346717 0.8705,-0.355215 1.08219,-0.924132 0.19803,-0.532221 0.21391,-0.867863 0.21713,-4.591161 l 0.003,-4.016964 0.30345,-0.858251 c 0.1669,-0.472037 0.50217,-1.141542 0.74504,-1.487789 0.4256,-0.606725 1.30421,-1.400593 1.54778,-1.398488 0.0648,5.6e-4 0.37131,0.146359 0.68104,0.323997 0.58466,0.335315 0.80602,0.573568 2.09411,2.253911 0.42359,0.552591 1.01204,1.195901 1.30766,1.429576 0.55842,0.4414 1.2054,0.719608 1.45275,0.62469 0.13592,-0.05216 0.9763,-1.233255 1.06339,-1.494513 0.098,-0.293909 3.01495,0.785486 5.13557,1.900356 1.06486,0.55983 6.26701,3.560466 6.45922,3.725727 0.0702,0.06032 -0.7474,2.438608 -1.41406,4.113504 -2.45378,6.164799 -5.7226,9.394582 -10.30263,10.17958 -1.23633,0.211902 -3.75102,0.21584 -5.17395,0.0081 z"
     id="path50"
     transform="scale(2)" /></svg>
